<svg xmlns="http://www.w3.org/2000/svg" width="32" height="32" viewBox="0 0 32 32"><title>ico</title><path d="M18,16a2,2,0,1,1-2-2A2,2,0,0,1,18,16Zm-4-5.23-.29.12A.77.77,0,0,1,13,10.8l-1.23-.86a.8.8,0,0,0-1,.06c-.13.11-.26.22-.38.34h0c-.12.12-.23.25-.34.38a.8.8,0,0,0-.06,1L10.81,13a.82.82,0,0,1,.06.8,1.8,1.8,0,0,0-.08.21.82.82,0,0,1-.62.52l-1.48.26a.82.82,0,0,0-.67.75c0,.17,0,.34,0,.51H8c0,.17,0,.34,0,.51a.82.82,0,0,0,.67.75l1.48.26a.76.76,0,0,1,.6.48l.12.29a.77.77,0,0,1-.09.76l-.86,1.23a.8.8,0,0,0,.06,1c.11.13.22.25.34.37h0l.37.34a.8.8,0,0,0,1,.06L13,21.2a.77.77,0,0,1,.76-.09l.29.12a.76.76,0,0,1,.48.6l.26,1.48a.82.82,0,0,0,.75.67l.5,0h0l.5,0a.82.82,0,0,0,.75-.67l.26-1.48a.76.76,0,0,1,.48-.6l.29-.12a.77.77,0,0,1,.76.09l1.23.86a.8.8,0,0,0,1-.06l.37-.34h0c.12-.12.23-.24.34-.37a.8.8,0,0,0,.06-1l-.86-1.23a.77.77,0,0,1-.09-.76l.12-.29a.76.76,0,0,1,.6-.48l1.48-.26a.82.82,0,0,0,.67-.75c0-.17,0-.34,0-.51h0c0-.17,0-.34,0-.51a.82.82,0,0,0-.67-.75l-1.48-.26a.82.82,0,0,1-.62-.52,1.8,1.8,0,0,0-.08-.21.82.82,0,0,1,.06-.8l.87-1.23a.8.8,0,0,0-.06-1c-.11-.13-.22-.26-.34-.38h0c-.12-.12-.25-.23-.38-.34a.8.8,0,0,0-1-.06l-1.23.86a.77.77,0,0,1-.76.09L18,10.77a.76.76,0,0,1-.48-.6l-.26-1.48A.82.82,0,0,0,16.51,8L16,8l-.51,0a.82.82,0,0,0-.75.67l-.26,1.48A.76.76,0,0,1,14,10.77Z" fill="#525b66"/></svg>