<?xml version="1.0" encoding="UTF-8"?>
<svg width="21px" height="14px" viewBox="0 0 21 14" version="1.1" xmlns="http://www.w3.org/2000/svg" xmlns:xlink="http://www.w3.org/1999/xlink">
    <!-- Generator: Sketch 51.3 (57544) - http://www.bohemiancoding.com/sketch -->
    <title>Shape</title>
    <desc>Created with Sketch.</desc>
    <defs></defs>
    <g id="GIS" stroke="none" stroke-width="1" fill="none" fill-rule="evenodd" fill-opacity="0.65" opacity="0.65">
        <g id="Гис-фильтр1" transform="translate(-952.000000, -24.000000)" fill="#000000" fill-rule="nonzero">
            <g id="Group-16" transform="translate(922.333333, 9.000000)">
                <g id="icons8-width" transform="translate(30.000000, 15.000000)">
                    <path d="M0,0 L0,14 L2,14 L2,0 L0,0 Z M2,7 L6,10 L6,8 L14,8 L14,10 L18,7 L14,4 L14,6 L6,6 L6,4 L2,7 Z M18,7 L18,14 L20,14 L20,0 L18,0 L18,7 Z M4,0 C3.449219,0 3,0.449219 3,1 C3,1.550781 3.449219,2 4,2 C4.550781,2 5,1.550781 5,1 C5,0.449219 4.550781,0 4,0 Z M8,0 C7.449219,0 7,0.449219 7,1 C7,1.550781 7.449219,2 8,2 C8.550781,2 9,1.550781 9,1 C9,0.449219 8.550781,0 8,0 Z M12,0 C11.449219,0 11,0.449219 11,1 C11,1.550781 11.449219,2 12,2 C12.550781,2 13,1.550781 13,1 C13,0.449219 12.550781,0 12,0 Z M16,0 C15.449219,0 15,0.449219 15,1 C15,1.550781 15.449219,2 16,2 C16.550781,2 17,1.550781 17,1 C17,0.449219 16.550781,0 16,0 Z M4,12 C3.449219,12 3,12.449219 3,13 C3,13.550781 3.449219,14 4,14 C4.550781,14 5,13.550781 5,13 C5,12.449219 4.550781,12 4,12 Z M8,12 C7.449219,12 7,12.449219 7,13 C7,13.550781 7.449219,14 8,14 C8.550781,14 9,13.550781 9,13 C9,12.449219 8.550781,12 8,12 Z M12,12 C11.449219,12 11,12.449219 11,13 C11,13.550781 11.449219,14 12,14 C12.550781,14 13,13.550781 13,13 C13,12.449219 12.550781,12 12,12 Z M16,12 C15.449219,12 15,12.449219 15,13 C15,13.550781 15.449219,14 16,14 C16.550781,14 17,13.550781 17,13 C17,12.449219 16.550781,12 16,12 Z" id="Shape"></path>
                </g>
            </g>
        </g>
    </g>
</svg>