<svg xmlns="http://www.w3.org/2000/svg" width="16" height="16" viewBox="0 0 16 16"><title>ico_percent_link</title><path d="M13.41,5.05A1.74,1.74,0,1,0,11,2.6L9.49,4.05a4.92,4.92,0,0,0-2.56-.38L9.48,1.12a3.82,3.82,0,0,1,5.4,5.41L11.2,10.21a3.83,3.83,0,0,1-5.41,0,3.25,3.25,0,0,1-.44-.54L6.88,8.14a1.72,1.72,0,0,0,2.84.6ZM6.28,7.26a1.72,1.72,0,0,1,2.84.6l1.53-1.53a3.25,3.25,0,0,0-.44-.54,3.83,3.83,0,0,0-5.41,0L1.12,9.47a3.82,3.82,0,0,0,5.4,5.41l2.55-2.55A4.92,4.92,0,0,1,6.51,12L5.05,13.4A1.74,1.74,0,1,1,2.59,11Z" fill="#525b66"/></svg>