<svg xmlns="http://www.w3.org/2000/svg" width="32" height="32" viewBox="0 0 32 32"><title>ico</title><path d="M20.62,9a1.53,1.53,0,0,1,0,1.8,10.68,10.68,0,0,1-17.33,0,1.53,1.53,0,0,1,0-1.8A10.68,10.68,0,0,1,20.62,9ZM12,6.08a3.86,3.86,0,1,0,3.85,3.86A3.86,3.86,0,0,0,12,6.08Zm0,1.54a2.32,2.32,0,1,0,2.31,2.32A2.32,2.32,0,0,0,12,7.62ZM27,27H5V25H27Zm.07-16.7a.35.35,0,0,0-.5,0L17.38,18a3,3,0,0,1,1.26.74A2.88,2.88,0,0,1,19.37,20l7.7-9.19A.35.35,0,0,0,27.07,10.3ZM17.88,22.15c-1.23,1.12-3.93.94-5.27.94,2.15-1.16,1.87-2.86,2.61-3.6a1.89,1.89,0,0,1,2.66,0A1.86,1.86,0,0,1,17.88,22.15Z" fill="#525b66"/></svg>