<svg xmlns="http://www.w3.org/2000/svg" width="32" height="32" viewBox="0 0 32 32"><title>ico</title><path d="M28,6a3,3,0,0,0-5.82-1H9.82A3,3,0,1,0,6.47,9l2,10.57a3,3,0,1,0,3.76,4.54L17,25.92s0,0,0,.08a3,3,0,1,0,4.66-2.5L25.29,9A3,3,0,0,0,28,6ZM25,4a2,2,0,1,1-2,2A2,2,0,0,1,25,4ZM5,6A2,2,0,1,1,7,8,2,2,0,0,1,5,6ZM9.93,24.11a2,2,0,1,1,2-2A2,2,0,0,1,9.93,24.11Zm3-1.92v-.08a3,3,0,0,0-2.53-2.95l-2-10.54A3.05,3.05,0,0,0,9.82,7H22.18a3,3,0,0,0,1.16,1.5L19.71,23a3,3,0,0,0-2,1ZM20,28a2,2,0,1,1,2-2A2,2,0,0,1,20,28Z" fill="#525b66"/></svg>