<svg xmlns="http://www.w3.org/2000/svg" width="32" height="32" viewBox="0 0 32 32"><title>ico</title><path d="M27,27H5V25H27Zm.07-16.7a.35.35,0,0,0-.5,0L17.38,18a3,3,0,0,1,1.26.74A2.88,2.88,0,0,1,19.37,20l7.7-9.19A.35.35,0,0,0,27.07,10.3ZM17.88,22.15c-1.23,1.12-3.93.94-5.27.94,2.15-1.16,1.87-2.86,2.61-3.6a1.89,1.89,0,0,1,2.66,0A1.86,1.86,0,0,1,17.88,22.15ZM20.62,9a1.53,1.53,0,0,1,0,1.8,10.47,10.47,0,0,1-10.55,4.25l1.36-1.35a4.34,4.34,0,0,0,.53,0,3.85,3.85,0,0,0,3.85-3.85,4.53,4.53,0,0,0-.05-.53l2.63-2.64A10.67,10.67,0,0,1,20.62,9ZM20,3,17.07,5.91l-1.9,1.9L14,9,11,12,9.83,13.15,8.34,14.64,6.11,16.88H3.93L6.84,14a10.64,10.64,0,0,1-3.55-3.12,1.53,1.53,0,0,1,0-1.8A10.67,10.67,0,0,1,12,4.6a10.54,10.54,0,0,1,3.61.64L17.8,3Zm-5.9,3.73A3.79,3.79,0,0,0,12,6.08,3.86,3.86,0,0,0,8.1,9.94a3.79,3.79,0,0,0,.65,2.12l1.12-1.13a2.36,2.36,0,0,1-.23-1A2.32,2.32,0,0,1,12,7.62a2.36,2.36,0,0,1,1,.23Z" fill="#525b66"/></svg>